<svg xmlns="http://www.w3.org/2000/svg" width="900" height="300">
<rect width="100%" height="100%" fill="#FBEFD2"/>
<g transform="translate(0,0)"> stroke="#3A1A0E" stroke-width="12" fill="none" stroke-linecap="round" stroke-linejoin="round">
  <ellipse cx="150" cy="200" rx="90" ry="35"/>
  <ellipse cx="150" cy="190" rx="70" ry="25" fill="#F1CC9C"/>
  <path d="M150 150 C110 130 100 90 140 70 C180 50 210 100 150 150 Z" fill="#F1CC9C"/>
  <line x1="150" y1="120" x2="170" y2="150" stroke="#3A1A0E" stroke-width="10"/>
</g>
</g>
<g transform="translate(300,0)"> stroke="#3A1A0E" stroke-width="12" fill="none" stroke-linecap="round" stroke-linejoin="round">
  <ellipse cx="150" cy="200" rx="90" ry="35"/>
  <ellipse cx="150" cy="190" rx="70" ry="25" fill="#F1CC9C"/>
  <path d="M110 150 C130 120 170 120 190 150" stroke="#3A1A0E" stroke-width="12"/>
  <line x1="130" y1="140" x2="170" y2="170" stroke="#3A1A0E" stroke-width="10"/>
</g>
</g>
<g transform="translate(600,0)"> stroke="#3A1A0E" stroke-width="12" fill="none" stroke-linecap="round" stroke-linejoin="round">
  <path d="M120 60 H180 L160 200 H100 Z" fill="#F1CC9C"/>
  <line x1="130" y1="90" x2="165" y2="180" stroke="#3A1A0E" stroke-width="10"/>
</g>
</g>
</svg>