<?xml version="1.0" standalone="no"?>
<!DOCTYPE svg PUBLIC "-//W3C//DTD SVG 20010904//EN"
 "http://www.w3.org/TR/2001/REC-SVG-20010904/DTD/svg10.dtd">
<svg version="1.0" xmlns="http://www.w3.org/2000/svg"
 width="416.000000pt" height="432.000000pt" viewBox="0 0 416.000000 432.000000"
 preserveAspectRatio="xMidYMid meet">
<metadata>
Created by potrace 1.16, written by Peter Selinger 2001-2019
</metadata>
<g transform="translate(0.000000,432.000000) scale(0.100000,-0.100000)"
fill="#000000" stroke="none">
<path d="M1765 4155 c-22 -7 -59 -18 -82 -25 -50 -15 -54 -32 -17 -71 l27 -28
-27 -7 c-15 -3 -40 -4 -56 0 -17 3 -30 2 -30 -2 0 -5 -27 -14 -60 -20 -87 -16
-206 -75 -225 -112 -14 -27 -14 -30 2 -38 10 -6 38 -13 63 -18 33 -5 40 -9 25
-14 -11 -3 -46 -18 -78 -33 -32 -15 -62 -27 -67 -27 -5 0 -7 -6 -4 -14 4 -9
-5 -20 -23 -30 -15 -8 -50 -33 -77 -55 -27 -21 -55 -37 -61 -35 -6 3 -24 -13
-39 -34 -15 -22 -38 -50 -51 -62 -43 -40 -29 -80 26 -80 25 0 18 -14 -53 -107
-28 -38 -66 -101 -85 -142 -29 -61 -33 -79 -24 -98 9 -21 34 -29 66 -23 6 1 4
-4 -2 -11 -7 -7 -13 -23 -13 -36 0 -21 -5 -23 -47 -24 -27 0 -62 -6 -80 -12
-38 -14 -127 -76 -120 -83 3 -3 -12 -40 -34 -82 -21 -42 -39 -84 -39 -94 0
-10 -6 -18 -12 -18 -9 0 -14 -28 -16 -100 -2 -55 1 -100 6 -100 5 0 14 -23 20
-51 23 -99 72 -198 129 -259 30 -33 63 -62 73 -65 11 -3 20 -17 22 -33 3 -24
8 -27 46 -30 l42 -3 -25 -43 c-40 -68 -30 -145 26 -218 16 -20 29 -49 29 -65
1 -86 65 -233 134 -309 40 -44 47 -48 65 -37 18 11 22 8 42 -25 13 -20 56 -71
96 -113 l73 -76 -21 -19 c-37 -32 -95 -117 -132 -190 l-35 -70 39 -21 39 -21
45 86 c46 86 67 115 118 161 l26 23 33 -20 c76 -46 111 -63 124 -58 9 3 33
-28 71 -92 51 -88 126 -182 144 -182 4 0 9 7 11 16 2 12 10 5 28 -22 14 -20
29 -38 34 -38 4 -1 17 24 29 54 20 55 96 182 116 194 7 5 11 -2 11 -19 l0 -25
38 24 c21 13 76 43 123 66 93 47 213 126 243 159 25 27 34 27 38 -4 3 -25 3
-25 83 26 45 29 121 92 173 144 50 52 92 88 92 80 0 -7 12 -23 27 -35 14 -11
31 -31 37 -43 14 -27 48 -34 65 -13 17 20 6 50 -22 63 -19 9 -55 73 -41 73 3
0 33 -19 66 -42 81 -54 234 -207 287 -286 l43 -64 33 32 34 33 -58 71 c-67 81
-174 185 -255 246 -31 23 -56 44 -56 46 0 2 16 25 37 51 46 61 71 118 85 193
l10 60 56 0 c65 0 138 31 148 63 5 16 0 26 -20 41 -14 12 -39 31 -54 43 l-27
22 66 1 c160 0 343 155 410 345 70 201 59 376 -33 521 -64 102 -176 174 -270
174 -41 0 -48 3 -48 20 0 11 -6 20 -12 20 -7 0 -21 26 -31 58 -11 31 -30 76
-43 99 -13 23 -25 51 -27 62 -2 11 -11 29 -22 41 -18 20 -18 20 8 20 65 0 10
87 -145 234 -108 102 -112 106 -99 130 20 36 11 47 -62 84 -54 26 -82 33 -155
38 -61 5 -89 11 -86 18 6 15 -11 35 -68 80 -54 43 -72 42 -93 -6 -8 -18 -14
-26 -15 -18 0 8 -10 26 -23 40 -12 14 -33 40 -46 58 -12 18 -26 30 -31 27 -5
-3 -36 12 -70 34 -33 22 -74 43 -90 46 -17 4 -33 12 -37 19 -5 7 -34 16 -66
19 -66 6 -78 -5 -59 -55 l10 -28 -26 18 c-33 23 -103 49 -157 57 -22 3 -47 8
-55 10 -8 2 -33 -3 -55 -10z m169 -104 c86 -30 160 -78 227 -145 33 -32 59
-55 59 -49 0 9 -49 156 -65 196 -20 48 108 -13 180 -87 28 -29 68 -86 90 -130
21 -42 43 -79 47 -82 4 -3 21 20 39 51 17 30 35 57 39 60 9 6 30 -49 30 -80 0
-20 3 -21 89 -17 52 3 96 0 107 -6 18 -10 18 -11 -1 -17 -11 -3 -40 -16 -65
-27 l-45 -21 60 -12 c116 -25 249 -101 339 -194 l40 -41 -69 7 -69 6 69 -69
c95 -95 170 -228 190 -336 7 -36 6 -37 -41 -60 -27 -12 -74 -47 -106 -78 -61
-61 -80 -107 -71 -165 l5 -34 38 57 c79 120 180 186 285 185 173 -2 304 -154
305 -355 0 -265 -167 -506 -371 -534 -59 -8 -123 10 -149 43 -20 26 -43 93
-56 166 l-6 37 45 0 c103 0 122 35 62 111 -40 50 -44 80 -15 109 24 24 32 25
70 5 86 -44 78 -220 -13 -317 -31 -33 -21 -35 34 -8 43 23 92 90 109 150 26
94 -10 192 -88 237 -26 15 -49 28 -51 30 -13 10 76 82 115 93 50 14 80 9 118
-21 28 -22 76 -107 76 -134 0 -8 5 -15 11 -15 13 0 7 57 -11 122 -13 45 -52
93 -91 113 -40 21 -115 19 -166 -6 -47 -23 -120 -99 -155 -160 -12 -21 -25
-39 -29 -39 -5 0 -27 31 -49 69 -36 61 -80 115 -80 98 0 -27 61 -191 101 -269
27 -54 45 -98 39 -98 -20 0 -84 31 -117 56 -18 14 -33 20 -33 14 0 -6 20 -82
45 -168 51 -178 96 -277 155 -341 22 -24 40 -46 40 -49 0 -13 -114 9 -145 28
l-35 22 0 -79 c0 -88 -20 -178 -53 -237 -35 -63 -46 -57 -49 26 l-3 73 -40
-69 c-22 -38 -45 -71 -51 -73 -13 -4 -34 40 -34 73 0 14 -5 34 -10 45 -10 17
-23 195 -20 259 1 14 1 35 1 48 0 34 0 79 1 110 1 15 1 41 1 57 -1 44 6 172
13 235 4 37 12 59 25 68 23 16 49 64 49 89 0 10 -9 35 -20 56 -14 27 -20 56
-20 106 0 271 -242 488 -520 467 -172 -13 -361 -111 -415 -215 -8 -17 -12 -31
-8 -31 5 0 54 29 110 64 63 39 135 74 186 91 74 24 96 27 178 23 120 -5 190
-32 264 -100 93 -84 135 -181 134 -303 0 -51 -2 -56 -11 -35 -46 112 -67 145
-124 201 -169 161 -395 172 -575 27 -47 -38 -115 -135 -124 -178 -8 -39 -18
-38 -50 5 -20 26 -27 46 -27 82 0 46 0 47 -13 23 -19 -33 -19 -114 0 -150 8
-15 26 -37 40 -48 22 -18 25 -27 25 -84 0 -34 4 -79 10 -97 5 -19 8 -36 6 -38
-2 -2 -20 6 -40 18 -58 34 -143 36 -255 5 -107 -29 -134 -44 -161 -89 -24 -38
-25 -68 -5 -107 17 -33 15 -35 -38 -39 -44 -3 -99 -24 -139 -53 -18 -12 -28
-15 -28 -7 0 18 59 118 97 166 l34 42 -33 17 c-81 41 -134 108 -170 214 -29
82 -31 239 -4 310 55 148 153 216 295 208 86 -4 186 -52 254 -120 26 -26 50
-48 52 -48 3 0 5 11 5 25 0 61 -98 157 -200 196 -153 58 -312 14 -405 -112
-66 -90 -90 -170 -89 -304 1 -86 6 -124 23 -175 29 -85 81 -163 131 -196 45
-30 47 -36 23 -55 -26 -22 -71 -127 -89 -209 -18 -82 -46 -123 -102 -146 -36
-16 -72 -5 -72 21 0 7 18 64 40 126 38 104 39 111 18 95 -51 -37 -112 -76
-120 -76 -5 0 -2 12 6 28 60 118 126 275 126 302 0 11 -12 59 -26 107 -20 69
-27 118 -31 223 -6 159 8 241 59 349 19 39 33 71 31 71 -2 0 -25 -16 -53 -36
-27 -20 -50 -33 -50 -30 0 32 125 218 211 315 27 30 46 57 44 60 -3 2 -24 7
-47 10 l-42 6 89 68 c49 37 125 85 169 107 85 41 217 80 273 80 18 0 33 4 33
8 0 10 -167 73 -218 82 l-37 7 30 13 c17 7 73 15 125 17 116 7 193 -11 297
-67 l73 -39 -41 62 c-23 34 -69 91 -103 126 l-61 63 60 -5 c33 -3 87 -14 119
-26z m501 -1127 c83 -40 167 -126 195 -201 18 -48 21 -72 17 -141 -9 -146 -85
-259 -215 -320 -49 -23 -70 -27 -152 -27 -117 1 -168 22 -251 105 -164 164
-130 451 68 567 77 45 112 54 198 50 63 -3 93 -10 140 -33z m-1551 0 c13 -5
16 -22 16 -84 l0 -78 -54 2 c-67 1 -99 -24 -121 -98 -16 -52 -11 -75 7 -41 35
61 100 83 138 45 23 -23 25 -36 7 -47 -64 -38 -70 -183 -11 -260 l25 -32 -31
-61 c-17 -33 -33 -60 -36 -60 -2 0 -27 21 -54 46 -91 85 -147 280 -121 421 23
124 80 211 157 238 45 16 56 17 78 9z m956 -479 c0 -2 -17 -9 -37 -15 -43 -11
-91 -45 -81 -55 4 -4 29 -2 56 5 58 15 97 5 125 -32 11 -14 20 -38 20 -52 0
-44 -27 -63 -96 -69 -34 -3 -71 -9 -82 -12 -20 -7 -20 -7 0 10 11 9 42 28 68
41 55 28 57 48 5 52 -26 2 -43 -4 -66 -23 -33 -28 -59 -85 -39 -85 7 0 -10
-11 -37 -25 l-49 -24 -31 23 c-17 12 -50 31 -73 41 -33 14 -45 25 -52 50 -22
81 15 120 107 113 31 -3 65 -9 76 -13 35 -15 12 19 -29 42 -36 20 -37 21 -14
26 33 6 229 8 229 2z m837 -333 c2 -147 5 -287 7 -312 9 -84 17 -135 25 -155
5 -11 15 -43 23 -71 15 -51 15 -52 -10 -85 -34 -46 -134 -140 -171 -162 l-31
-18 0 55 c0 31 -4 56 -10 56 -5 0 -10 -4 -10 -9 0 -4 -22 -37 -49 -73 -47 -62
-136 -140 -212 -186 -56 -34 -149 -73 -149 -63 0 5 16 31 36 56 19 26 34 49
32 51 -3 2 -33 -13 -68 -34 -68 -40 -175 -150 -219 -226 -15 -25 -30 -43 -34
-39 -10 10 -8 123 3 162 22 79 -24 36 -72 -66 -17 -35 -32 -63 -34 -63 -2 0
-15 24 -30 53 -46 92 -96 157 -166 213 -66 54 -85 54 -57 2 18 -34 1 -32 -58
7 -115 76 -204 181 -283 333 -17 34 -36 62 -41 62 -5 0 -9 -16 -9 -35 0 -19
-4 -35 -10 -35 -20 0 -102 191 -88 205 3 3 25 -3 49 -14 24 -10 62 -22 85 -26
37 -6 42 -10 53 -44 35 -119 144 -238 273 -300 108 -51 177 -65 323 -65 93 0
138 5 199 23 220 62 391 213 443 391 10 35 30 70 55 98 78 85 97 171 56 252
-28 54 -43 60 -56 20 -6 -16 -15 -30 -19 -30 -4 0 -18 26 -31 58 -13 31 -25
63 -29 70 -3 7 2 12 13 12 52 0 233 140 250 192 3 11 9 17 12 14 3 -4 7 -127
9 -274z m-560 83 c34 -16 79 -27 129 -32 l77 -6 24 -53 c13 -29 27 -69 30 -88
4 -28 2 -35 -16 -41 -41 -13 -93 16 -183 101 -96 91 -153 131 -198 140 l-29 6
16 34 16 33 41 -35 c22 -19 64 -46 93 -59z m-348 -454 c81 -41 145 -59 239
-70 91 -10 209 1 281 25 24 8 46 12 50 9 12 -13 -55 -119 -109 -173 -66 -66
-190 -133 -290 -158 -99 -25 -312 -15 -402 18 -130 48 -222 127 -272 232 l-24
51 87 21 c100 25 188 67 246 117 l39 34 50 -39 c28 -22 75 -52 105 -67z"/>
<path d="M1238 2880 c-45 -28 -9 -59 110 -97 75 -23 81 -27 68 -42 -8 -9 -19
-36 -26 -60 -17 -64 1 -131 48 -172 32 -28 40 -31 84 -27 56 6 92 33 109 85
13 41 4 104 -22 137 l-19 24 29 5 c49 10 83 47 83 91 0 51 -19 69 -39 39 -19
-28 -32 -28 -155 -3 -125 25 -247 34 -270 20z"/>
<path d="M2172 2912 c-76 -28 -141 -86 -182 -167 -32 -62 -35 -76 -35 -149 1
-104 33 -179 106 -248 192 -180 506 -70 549 194 23 145 -53 289 -187 355 -73
35 -176 41 -251 15z m223 -82 c72 -31 116 -86 139 -173 25 -95 0 -191 -65
-256 -53 -54 -105 -75 -184 -75 -59 0 -78 4 -116 26 -55 32 -103 84 -125 136
-26 57 -24 167 3 218 70 132 213 183 348 124z"/>
<path d="M2228 2734 c-73 -39 -85 -179 -22 -245 78 -82 204 -15 204 109 0 38
-2 43 -17 36 -10 -4 -34 -8 -53 -8 -31 -1 -35 2 -38 25 -2 17 6 37 22 57 22
25 24 31 10 36 -27 10 -78 6 -106 -10z"/>
<path d="M2312 767 c-6 -7 -12 -74 -14 -155 -3 -155 -4 -152 58 -152 29 0 34
4 34 23 0 12 4 28 9 35 7 11 10 10 15 -3 3 -9 3 -22 -1 -27 -3 -6 -1 -8 4 -5
6 4 13 0 17 -8 7 -19 84 -21 92 -2 2 7 -9 38 -25 69 l-30 55 25 37 c36 53 27
69 -39 64 -49 -3 -52 -5 -58 -33 l-6 -30 -2 33 c0 18 4 42 9 53 6 11 7 19 2
19 -6 0 -12 9 -15 20 -6 23 -58 28 -75 7z"/>
<path d="M1379 733 c-1 -34 -2 -35 -9 -13 l-8 25 -1 -27 c-1 -16 3 -28 7 -28
4 0 8 -10 8 -22 0 -13 1 -65 2 -115 l2 -93 44 0 c25 0 47 4 50 9 7 10 31 9 42
-2 4 -4 30 -7 59 -7 l51 0 21 63 21 62 0 -52 c0 -64 5 -73 46 -73 45 0 53 14
51 88 -1 34 2 62 7 62 7 0 12 -37 9 -85 0 -11 2 -15 5 -8 3 7 16 0 34 -20 27
-30 33 -32 95 -32 63 0 68 2 96 33 24 27 29 41 29 85 0 28 -6 59 -13 67 -22
27 -84 42 -146 35 -48 -6 -61 -11 -72 -31 l-13 -25 -9 23 c-5 13 -12 41 -16
63 l-6 40 -73 3 c-59 2 -72 0 -72 -13 0 -8 -4 -15 -10 -15 -5 0 -10 -11 -10
-25 0 -13 -7 -28 -16 -33 -11 -6 -15 -17 -11 -31 11 -43 -11 -10 -32 49 -25
68 -23 66 -103 74 l-58 6 -1 -37z"/>
<path d="M2200 689 c-25 -3 -63 -4 -86 -1 -23 2 -50 -1 -60 -7 -11 -6 -14 -11
-9 -11 6 0 9 -35 7 -91 -4 -103 3 -119 54 -119 42 0 48 11 45 79 -1 39 1 52 8
41 8 -12 11 -11 18 5 6 14 10 -1 13 -50 l5 -70 40 0 40 0 5 102 c3 55 2 99 -2
97 -4 -2 -13 4 -20 14 -10 14 -22 16 -58 11z"/>
<path d="M2583 681 c-61 -38 -68 -147 -12 -197 29 -26 140 -27 166 -2 16 17
16 19 -8 44 -16 17 -19 25 -9 23 34 -5 51 12 44 46 -12 65 14 42 45 -40 l32
-84 -21 -42 c-30 -63 -27 -69 29 -69 44 0 50 3 59 28 6 15 19 50 30 77 70 179
80 213 69 224 -14 14 -70 14 -84 0 -9 -9 -23 -9 -56 0 -63 18 -102 12 -102
-16 0 -12 -4 -26 -9 -30 -4 -4 -7 -3 -6 2 6 26 -2 44 -17 44 -10 0 -40 3 -68
6 -40 5 -57 2 -82 -14z"/>
<path d="M1435 351 c-53 -24 -75 -58 -75 -118 0 -83 48 -132 128 -133 55 0 95
25 86 54 -5 19 -5 19 7 5 47 -54 132 -76 175 -44 10 8 27 15 37 15 15 0 16 7
11 58 -4 31 -12 67 -20 79 -20 31 -76 47 -118 33 -43 -14 -63 -36 -71 -81 -4
-20 -12 -36 -18 -36 -7 -1 -34 -6 -61 -11 -42 -9 -51 -7 -68 10 -13 13 -18 30
-16 56 l3 37 62 3 c58 3 63 5 69 28 13 52 -62 77 -131 45z"/>
<path d="M2607 343 c-4 -3 -7 -16 -8 -27 0 -12 -3 -15 -6 -8 -2 6 -9 10 -14 6
-11 -7 -12 -74 0 -74 4 0 11 -24 14 -52 9 -72 58 -109 105 -79 21 13 11 56
-13 56 -16 0 -21 8 -23 37 -3 35 -1 37 29 40 22 2 34 10 40 26 5 13 4 22 -1
22 -6 0 -10 -8 -10 -17 0 -11 -7 -4 -18 16 -10 18 -22 33 -27 33 -6 0 -14 6
-18 14 -8 14 -39 19 -50 7z"/>
<path d="M1862 303 l-43 -4 3 -97 3 -97 33 -3 c18 -2 32 0 31 5 -4 22 3 136 8
125 4 -10 8 -10 19 -1 18 15 23 2 26 -71 3 -54 4 -55 33 -55 30 0 30 1 36 65
3 36 6 61 7 56 1 -5 8 -3 16 3 11 10 16 8 21 -9 4 -11 6 -35 5 -53 -4 -63 -2
-67 30 -67 34 0 33 -2 30 95 -2 76 -14 99 -56 109 -14 4 -37 1 -52 -7 -22 -10
-32 -10 -52 0 -14 7 -32 12 -40 11 -8 -1 -34 -3 -58 -5z"/>
<path d="M2193 303 l-43 -4 0 -132 c0 -119 2 -134 20 -149 17 -16 21 -16 35
-2 8 9 15 31 15 50 0 33 1 34 39 34 32 0 44 6 66 32 23 28 26 39 23 80 -4 33
-1 48 9 52 10 4 13 -9 13 -58 0 -80 23 -106 92 -106 75 0 92 21 96 119 l4 81
-36 0 -36 0 0 -64 c0 -46 -4 -67 -16 -77 -14 -11 -18 -10 -30 6 -19 26 -18 91
1 99 15 5 22 27 8 24 -5 0 -16 2 -27 7 -10 4 -37 4 -60 -1 -30 -7 -48 -6 -66
3 -14 7 -34 12 -45 11 -11 -1 -39 -3 -62 -5z"/>
<path d="M2783 296 c-40 -18 -53 -43 -53 -99 0 -38 5 -49 31 -71 35 -29 101
-35 132 -12 18 14 18 16 2 40 -10 14 -13 26 -9 26 18 -1 41 -26 48 -52 5 -23
12 -28 36 -28 30 0 30 0 30 60 0 50 3 60 18 60 14 0 15 2 2 10 -12 8 -9 10 11
10 31 0 52 21 43 44 -7 18 -9 18 -79 16 -31 -1 -54 -7 -61 -16 -10 -12 -13
-12 -17 -2 -4 10 -6 10 -6 -1 -1 -12 -4 -11 -18 1 -27 24 -74 29 -110 14z"/>
</g>
</svg>
